<?xml version="1.0" encoding="UTF-8"?>
<svg width="20px" height="20px" viewBox="0 0 20 20" version="1.1" xmlns="http://www.w3.org/2000/svg" xmlns:xlink="http://www.w3.org/1999/xlink">
    <!-- Generator: Sketch 47.1 (45422) - http://www.bohemiancoding.com/sketch -->
    <title>Group 5</title>
    <desc>Created with Sketch.</desc>
    <defs></defs>
    <g id="Welcome" stroke="none" stroke-width="1" fill="none" fill-rule="evenodd">
        <g id="Dark-Map" transform="translate(-85.000000, -402.000000)">
            <g id="Group-5" transform="translate(85.000000, 402.000000)">
                <circle id="Oval-2" fill="#FFFFFF" cx="10" cy="10" r="10"></circle>
                <g id="Group-3" transform="translate(3.000000, 5.000000)" fill-rule="nonzero" fill="#000000">
                    <g id="noun_381031_cc">
                        <g id="Group">
                            <ellipse id="Oval" cx="7.21196338" cy="5.3780922" rx="1.81423611" ry="1.87593703"></ellipse>
                            <path d="M5.03145292,2.30228636 C4.77227633,2.03429535 4.3717307,2.03429535 4.11255411,2.30228636 C2.22763348,4.25131184 2.22763348,7.44284108 4.11255411,9.41622939 C4.23036165,9.53804348 4.39529221,9.61113193 4.56022276,9.61113193 C4.72515332,9.61113193 4.89008387,9.53804348 5.00789141,9.41622939 C5.267068,9.14823838 5.267068,8.73407046 5.00789141,8.46607946 C3.61776245,7.02867316 3.61776245,4.68984258 5.00789141,3.25243628 C5.267068,2.98444528 5.267068,2.57027736 5.03145292,2.30228636 Z" id="Shape"></path>
                            <path d="M10.2444366,2.30228636 C9.98525997,2.03429535 9.58471433,2.03429535 9.32553774,2.30228636 C9.06636116,2.57027736 9.06636116,2.98444528 9.32553774,3.25243628 C10.7156667,4.68984258 10.7156667,7.02867316 9.32553774,8.46607946 C9.06636116,8.73407046 9.06636116,9.14823838 9.32553774,9.41622939 C9.44334528,9.53804348 9.60827584,9.61113193 9.77320639,9.61113193 C9.93813695,9.61113193 10.1030675,9.53804348 10.220875,9.41622939 C12.1293572,7.44284108 12.1293572,4.27567466 10.2444366,2.30228636 Z" id="Shape"></path>
                            <path d="M11.6645529,0.200993253 C11.4053763,0.468984258 11.4053763,0.883152174 11.6645529,1.15114318 C13.9735807,3.51433658 13.9735807,7.41238756 11.6645529,9.79994378 C11.4053763,10.0679348 11.4053763,10.4821027 11.6645529,10.7500937 C11.7823604,10.8719078 11.947291,10.9449963 12.1122215,10.9449963 C12.2771521,10.9449963 12.4420827,10.8719078 12.5598902,10.7500937 C15.3872711,7.82655547 15.3872711,3.10016867 12.5834517,0.200993253 C12.3242751,-0.0669977511 11.9237295,-0.0669977511 11.6645529,0.200993253 Z" id="Shape"></path>
                            <path d="M3.02176339,1.15114318 C3.28093998,0.883152174 3.28093998,0.468984258 3.02176339,0.200993253 C2.76258681,-0.0669977511 2.36204117,-0.0669977511 2.10286458,0.200993253 C-0.700954861,3.10016867 -0.700954861,7.82655547 2.10286458,10.7500937 C2.22067212,10.8719078 2.38560268,10.9449963 2.55053323,10.9449963 C2.71546379,10.9449963 2.88039435,10.8719078 2.99820188,10.7500937 C3.25737847,10.4821027 3.25737847,10.0679348 2.99820188,9.79994378 C0.712735615,7.43675037 0.712735615,3.5386994 3.02176339,1.15114318 Z" id="Shape"></path>
                        </g>
                    </g>
                </g>
            </g>
        </g>
    </g>
</svg>