<?xml version="1.0" encoding="UTF-8"?>
<svg width="27px" height="27px" viewBox="0 0 27 27" version="1.1" xmlns="http://www.w3.org/2000/svg" xmlns:xlink="http://www.w3.org/1999/xlink">
    <!-- Generator: Sketch 47.1 (45422) - http://www.bohemiancoding.com/sketch -->
    <title>noun_503219_cc</title>
    <desc>Created with Sketch.</desc>
    <defs></defs>
    <g id="Welcome" stroke="none" stroke-width="1" fill="none" fill-rule="evenodd">
        <g id="Light-Map" transform="translate(-313.000000, -169.000000)" fill-rule="nonzero" fill="#0A1A3E">
            <g id="noun_503219_cc" transform="translate(313.000000, 169.000000)">
                <g id="Group">
                    <path d="M13.5,6.23076923 C9.49153846,6.23076923 6.23076923,9.49153846 6.23076923,13.5 C6.23076923,17.5084615 9.49153846,20.7692308 13.5,20.7692308 C17.5084615,20.7692308 20.7692308,17.5084615 20.7692308,13.5 C20.7692308,9.49153846 17.5084615,6.23076923 13.5,6.23076923 Z" id="Shape"></path>
                    <path d="M13.5,4.15384615 C14.0732308,4.15384615 14.5384615,3.68861538 14.5384615,3.11538462 L14.5384615,1.03846154 C14.5384615,0.465230769 14.0732308,0 13.5,0 C12.9267692,0 12.4615385,0.465230769 12.4615385,1.03846154 L12.4615385,3.11538462 C12.4615385,3.68861538 12.9267692,4.15384615 13.5,4.15384615 Z" id="Shape"></path>
                    <path d="M13.5,22.8461538 C12.9267692,22.8461538 12.4615385,23.3113846 12.4615385,23.8846154 L12.4615385,25.9615385 C12.4615385,26.5347692 12.9267692,27 13.5,27 C14.0732308,27 14.5384615,26.5347692 14.5384615,25.9615385 L14.5384615,23.8846154 C14.5384615,23.3113846 14.0732308,22.8461538 13.5,22.8461538 Z" id="Shape"></path>
                    <path d="M25.9615385,12.4615385 L23.8846154,12.4615385 C23.3113846,12.4615385 22.8461538,12.9267692 22.8461538,13.5 C22.8461538,14.0732308 23.3113846,14.5384615 23.8846154,14.5384615 L25.9615385,14.5384615 C26.5347692,14.5384615 27,14.0732308 27,13.5 C27,12.9267692 26.5347692,12.4615385 25.9615385,12.4615385 Z" id="Shape"></path>
                    <path d="M4.15384615,13.5 C4.15384615,12.9267692 3.68861538,12.4615385 3.11538462,12.4615385 L1.03846154,12.4615385 C0.465230769,12.4615385 0,12.9267692 0,13.5 C0,14.0732308 0.465230769,14.5384615 1.03846154,14.5384615 L3.11538462,14.5384615 C3.68861538,14.5384615 4.15384615,14.0732308 4.15384615,13.5 Z" id="Shape"></path>
                    <path d="M20.8434808,7.1955 C21.1093269,7.1955 21.3746538,7.09425 21.5776731,6.89123077 L23.0460577,5.42232692 C23.4515769,5.01680769 23.4515769,4.35946154 23.0460577,3.95342308 C22.6405385,3.54842308 21.9831923,3.54790385 21.5776731,3.95342308 L20.1092885,5.42232692 C19.7037692,5.82784615 19.7037692,6.48519231 20.1092885,6.89123077 C20.3117885,7.09425 20.5776346,7.1955 20.8434808,7.1955 Z" id="Shape"></path>
                    <path d="M5.42284615,20.1092885 L3.95394231,21.5776731 C3.54842308,21.9826731 3.54842308,22.6405385 3.95394231,23.0460577 C4.15696154,23.2490769 4.42280769,23.3503269 4.68865385,23.3503269 C4.9545,23.3503269 5.21982692,23.2490769 5.42284615,23.0460577 L6.89175,21.5776731 C7.29726923,21.1726731 7.29726923,20.5148077 6.89175,20.1092885 C6.48571154,19.70325 5.82836538,19.70325 5.42284615,20.1092885 Z" id="Shape"></path>
                    <path d="M21.5776731,20.1092885 C21.1721538,19.7037692 20.5148077,19.7037692 20.1092885,20.1092885 C19.7037692,20.5148077 19.7037692,21.1721538 20.1092885,21.5776731 L21.5776731,23.0460577 C21.7806923,23.2490769 22.0460192,23.3503269 22.3118654,23.3503269 C22.5777115,23.3503269 22.8430385,23.2490769 23.0460577,23.0460577 C23.4515769,22.6405385 23.4515769,21.9831923 23.0460577,21.5776731 L21.5776731,20.1092885 Z" id="Shape"></path>
                    <path d="M5.42284615,6.89123077 C5.62534615,7.09425 5.89119231,7.1955 6.15703846,7.1955 C6.42288462,7.1955 6.68873077,7.09425 6.89123077,6.89123077 C7.29675,6.48571154 7.29675,5.82836538 6.89123077,5.42284615 L5.42232692,3.95394231 C5.01732692,3.54842308 4.35894231,3.54842308 3.95394231,3.95394231 C3.54842308,4.35946154 3.54842308,5.01680769 3.95394231,5.42232692 L5.42284615,6.89123077 Z" id="Shape"></path>
                </g>
            </g>
        </g>
    </g>
</svg>